<svg width="59" height="65" viewBox="0 0 59 65" fill="none" xmlns="http://www.w3.org/2000/svg">
<path d="M49.4032 34.4239L27.9022 55.1744L18.3317 45.5742C17.6314 44.8719 17.6314 43.7339 18.3317 43.0316C19.031 42.3293 20.1668 42.3293 20.8661 43.0316C22.9989 45.1714 23.0466 45.2179 25.1797 47.3579C27.7929 49.98 28.3828 49.6073 30.9691 47.0127L39.4221 38.5327H2.17857L27.9022 65L56.7321 36.6791L57.3122 35.833C59.7233 32.3163 57.2053 27.537 52.9415 27.537H13.3214L30.4 10.5725C36.6518 16.3999 38.9352 18.6066 44.7768 24.2085L45.3806 24.3803C48.2044 25.1837 50.8375 22.6256 50.1161 19.7797L30.4 0L1.35419 29.0521C-0.167286 31.104 1.06067 34.0404 3.58614 34.4239H5.44819H49.4032Z" fill="url(#paint0_linear_383_62521)"/>
<defs>
<linearGradient id="paint0_linear_383_62521" x1="27.9023" y1="13.1838" x2="27.9023" y2="63.1353" gradientUnits="userSpaceOnUse">
<stop stop-color="#A10889"/>
<stop offset="1" stop-color="#9214EE"/>
</linearGradient>
</defs>
</svg>
